<?xml version="1.0" encoding="utf-8"?>
<!-- Generator: Adobe Illustrator 26.2.1, SVG Export Plug-In . SVG Version: 6.00 Build 0)  -->
<svg version="1.1" id="Layer_1" xmlns="http://www.w3.org/2000/svg" xmlns:xlink="http://www.w3.org/1999/xlink" x="0px" y="0px"
	 viewBox="0 0 350.5 256.9" style="enable-background:new 0 0 350.5 256.9;" xml:space="preserve">
<style type="text/css">
	.st0{fill:#57C09E;}
	.st1{fill:#00A582;}
	.st2{fill:#048DBA;}
	.st3{fill:#00BFDD;}
	.st4{fill:#144373;}
</style>
<g>
	<g>
		<path class="st0" d="M320.5,172.9l0.4,8.2c3.2-2.5,5-4,5-4L320.5,172.9z"/>
		<path class="st1" d="M210.6,177c-6.6,4.5-12.7,8.2-17.5,10.5c-23.2,11.2-56.7,15.4-87.2-2.5c21.2,16.8,43.5,34.3,54,41.3
			s36,20.2,70.3,13c19.2-4.5,62.9-36.9,83.9-53.1c-12.9,6.9-28.3,10.9-44.9,10.9C246.2,197.1,225.4,189.4,210.6,177z"/>
		<path class="st2" d="M192.6,76.2c4.7,2.3,10.7,5.9,17.2,10.3c14.9-12.8,36.1-20.8,59.5-20.8c14.6,0,28.3,3.1,40.2,8.5
			c-22.2-17-61.7-45.7-79.7-49.9c-34.3-7.2-59.8,6-70.3,13l-54,41.3C135.9,60.9,169.4,65,192.6,76.2z"/>
		<path class="st3" d="M325.4,86.7c0,0-3.4-2.7-9-7.1l0.6,13.6L325.4,86.7z"/>
		<path class="st0" d="M320.9,181.1c-1.8,1.4-4.1,3.2-6.7,5.2"/>
		<path class="st0" d="M268.7,132.3c0,0-32.9,27.6-58.1,44.7c14.8,12.4,35.7,20.1,58.7,20.1c16.6,0,32-4,44.9-10.9
			c2.6-2,4.9-3.8,6.7-5.2l-0.4-8.2L268.7,132.3z"/>
		<path class="st3" d="M209.8,86.5c25.2,17,58.4,44.9,58.4,44.9l48.9-38.2l-0.6-13.6c-2.1-1.6-4.4-3.4-7-5.4
			c-11.9-5.4-25.6-8.5-40.2-8.5C245.8,65.7,224.6,73.7,209.8,86.5z"/>
		<path class="st0" d="M193,154.6c-3.4-7.2-5.3-15-5.3-23.2c0-8,1.8-15.7,5-22.8c3.8-8.3,9.6-15.8,17-22.1
			c-6.5-4.4-12.4-8-17.2-10.3c-23.2-11.2-56.7-15.4-87.2,2.5l-67.9,53.2l68.4,53.2c30.5,17.8,64,13.7,87.2,2.5
			c4.8-2.3,10.9-6.1,17.5-10.5C203,170.7,196.9,163.1,193,154.6z"/>
		<path class="st0" d="M105.4,78.7l54-41.3C148.9,44.4,126.6,61.9,105.4,78.7z"/>
	</g>
</g>
</svg>
