<?xml version="1.0" encoding="utf-8"?>
<!-- Generator: Adobe Illustrator 26.2.1, SVG Export Plug-In . SVG Version: 6.00 Build 0)  -->
<svg version="1.1" id="Layer_1" xmlns="http://www.w3.org/2000/svg" xmlns:xlink="http://www.w3.org/1999/xlink" x="0px" y="0px"
	 viewBox="0 0 879.5 256.9" style="enable-background:new 0 0 879.5 256.9;" xml:space="preserve">
<style type="text/css">
	.st0{fill:#57C09E;}
	.st1{fill:#00A582;}
	.st2{fill:#048DBA;}
	.st3{fill:#00BFDD;}
	.st4{fill:#144373;}
</style>
<g>
	<g>
		<path class="st0" d="M320.5,172.9l0.4,8.2c3.2-2.5,5-4,5-4L320.5,172.9z"/>
		<path class="st1" d="M210.6,177c-6.6,4.5-12.7,8.2-17.5,10.5c-23.2,11.2-56.7,15.4-87.2-2.5c21.2,16.8,43.5,34.3,54,41.3
			s36,20.2,70.3,13c19.2-4.5,62.9-36.9,83.9-53.1c-12.9,6.9-28.3,10.9-44.9,10.9C246.2,197.1,225.4,189.4,210.6,177z"/>
		<path class="st2" d="M192.6,76.2c4.7,2.3,10.7,5.9,17.2,10.3c14.9-12.8,36.1-20.8,59.5-20.8c14.6,0,28.3,3.1,40.2,8.5
			c-22.2-17-61.7-45.7-79.7-49.9c-34.3-7.2-59.8,6-70.3,13l-54,41.3C135.9,60.9,169.4,65,192.6,76.2z"/>
		<path class="st3" d="M325.4,86.7c0,0-3.4-2.7-9-7.1l0.6,13.6L325.4,86.7z"/>
		<path class="st0" d="M320.9,181.1c-1.8,1.4-4.1,3.2-6.7,5.2"/>
		<path class="st0" d="M268.7,132.3c0,0-32.9,27.6-58.1,44.7c14.8,12.4,35.7,20.1,58.7,20.1c16.6,0,32-4,44.9-10.9
			c2.6-2,4.9-3.8,6.7-5.2l-0.4-8.2L268.7,132.3z"/>
		<path class="st3" d="M209.8,86.5c25.2,17,58.4,44.9,58.4,44.9l48.9-38.2l-0.6-13.6c-2.1-1.6-4.4-3.4-7-5.4
			c-11.9-5.4-25.6-8.5-40.2-8.5C245.8,65.7,224.6,73.7,209.8,86.5z"/>
		<path class="st0" d="M193,154.6c-3.4-7.2-5.3-15-5.3-23.2c0-8,1.8-15.7,5-22.8c3.8-8.3,9.6-15.8,17-22.1
			c-6.5-4.4-12.4-8-17.2-10.3c-23.2-11.2-56.7-15.4-87.2,2.5l-67.9,53.2l68.4,53.2c30.5,17.8,64,13.7,87.2,2.5
			c4.8-2.3,10.9-6.1,17.5-10.5C203,170.7,196.9,163.1,193,154.6z"/>
		<path class="st0" d="M105.4,78.7l54-41.3C148.9,44.4,126.6,61.9,105.4,78.7z"/>
		<path class="st4" d="M402.3,156.6c-13.5,0-24.5-11.1-24.5-24.8s11-24.8,24.5-24.8c6.6,0,12.6,2.6,17,6.9l9.5-9.7
			c-7-7.2-16.7-11.6-27.5-11.6c-21.4,0-38.7,17.5-38.7,39.2c0,21.6,17.3,39.2,38.7,39.2c10.9,0,20.7-4.6,27.8-11.9l-9.7-9.5
			C414.9,154,408.9,156.6,402.3,156.6z"/>
		<path class="st4" d="M474.5,92.9c-21.6,0-39.1,17.4-39.1,38.9s17.5,38.9,39.1,38.9s39.1-17.4,39.1-38.9
			C513.7,110.3,496.1,92.9,474.5,92.9z M474.3,156.3c-13.1,0-23.6-10.9-23.6-24.4s10.6-24.4,23.6-24.4s23.6,10.9,23.6,24.4
			C498,145.4,487.4,156.3,474.3,156.3z"/>
		<path class="st4" d="M609.5,92.7c-10,0-19,5.2-25.2,13.5l-0.3,0.3c-6.2-8.4-15.3-13.8-25.5-13.8c-12.1,0-22.8,7.6-28.8,19.2
			c-1,1.7-1.6,5.3-1.6,11.3s-0.7,45-0.7,45H543l-0.2-42.9c0-5.4,0.9-7.4,1.9-9.2c3.3-5.3,8.4-8.7,14.2-8.7c6,0,11.4,3.7,14.7,9.4
			c2.2,3.7,2.6,5.8,2.6,11.3s0,40.3,0,40.3h15.1v-44c0-2.9,1.5-6.7,1.5-6.7c3.2-6.2,8.8-10.3,15.2-10.3c5.6,0,10.7,3.2,14,8.3
			c0.6,0.9,2.4,4.3,2.3,8.9s0,43.1,0,43.1H640v-44c0-5.9,0-8.7-1.6-11.7C632.4,100.4,621.7,92.7,609.5,92.7z"/>
		<path class="st4" d="M716,103.5c-6.7-6.7-15.8-10.8-25.9-10.8c-20.7,0-37.4,17.3-37.4,38.7s16.7,38.7,37.4,38.7
			c10.1,0,19.3-4.1,26-10.9v9.5h15.1v-73c-0.3,0-15.1,0-15.1,0L716,103.5z M692.3,156.2c-13.2,0-23.8-11-23.8-24.7
			c0-13.6,10.7-24.7,23.8-24.7c13.2,0,23.8,11,23.8,24.7C716.2,145.2,705.5,156.2,692.3,156.2z"/>
		<path class="st4" d="M786.9,137.9l35.5-0.1c0.3-2.1,0.5-4.2,0.5-6.3c0-21.4-17.6-38.7-39.2-38.7s-39.2,17.3-39.2,38.7
			s17.6,38.7,39.2,38.7c9.8,0,18.7-3.5,25.6-9.4l-10-10.1c-4.1,3.1-9.3,4.9-15,4.9c-13.6,0-24.6-10.7-24.6-23.8s11-23.8,24.6-23.8
			c11.4,0,21,7.5,23.8,17.7l-32.9,0.2L786.9,137.9z"/>
	</g>
	<g>
		<path class="st4" d="M378.2,216.9h-11c-0.7,1.9-1.4,3.9-2.1,5.8h-2.5c3-8.2,6-16.4,9-24.6h2.2l9,24.6h-2.5
			C379.6,220.8,378.9,218.8,378.2,216.9z M372.6,201.2c-0.4,1.2-1.2,3.8-2.2,6.3c-1,2.8-2,5.7-2.6,7.4h9.7l-2.8-8l-2-5.7H372.6z"/>
		<path class="st4" d="M415.9,222.7v-19.2l-0.1,0l-2.8,6.2c-0.7,1.5-3.6,7.7-4.4,9.2h-2.1l-4.4-9.4c-0.6-1.3-2.2-4.8-2.8-6.1l-0.1,0
			v19.2h-2.4v-24.6h2.4c0.9,1.9,4.4,9.6,5.3,11.5c0.6,1.2,2.3,5.2,2.9,6.4h0.1l2.9-6.4c0.9-1.9,4.4-9.7,5.3-11.6h2.3v24.6H415.9z"/>
		<path class="st4" d="M434.9,221c-0.9,1.4-3,1.9-5.4,1.9c-3.7,0-6.2-1.9-6.2-5.1c0-2.8,1.9-5,5.6-5h6v-2.3c0-2.2-1.3-3.5-4.6-3.5
			c-1.9,0-3.4,0.5-4.5,1.6l-1.4-1.5c1.4-1.5,3.5-2.2,5.9-2.2c3.7,0,6.8,1.1,6.8,5.6v12.2h-2.2L434.9,221L434.9,221z M429.5,214.7
			c-2.5,0-4,1.1-4,3.1c0,2,1.6,3.2,4.4,3.2c2.3,0,5.1-0.7,5.1-3.5v-2.8H429.5z"/>
		<path class="st4" d="M448.6,230c-1.8,0-3.7-0.7-5.1-2l1.5-1.6c1,0.8,2.3,1.6,3.8,1.6c2.9,0,5.1-1.8,5.2-5v-2.7h-0.1
			c-1.3,1.8-3,2.7-5.1,2.7c-5,0-6.3-4.4-6.4-8.7c0-4.6,1.4-9.3,6.5-9.3c1.7,0,3.6,0.5,5,2.4h0.1v-2.2h2.2l0,17.3
			C456.1,227.8,452.6,230,448.6,230z M449.3,220.7c3.6,0,4.6-3.5,4.6-6.8c0-2.8-0.6-6.8-4.6-6.8c-4.2,0-4.7,3.9-4.7,6.8
			C444.6,217.1,445.3,220.7,449.3,220.7z"/>
		<path class="st4" d="M473.6,222.7v-10.9c0-3-1.3-4.7-4.5-4.7c-2.7,0-4.7,2-4.7,5v10.5h-2.2v-17.6h2.2v2.6h0.1
			c1.2-1.9,3.3-2.8,5.3-2.8c3.6,0,6.1,2.1,6.1,6.1v11.7H473.6z"/>
		<path class="st4" d="M483.2,214.6c-0.1,3.5,1.5,6.4,5.4,6.4c1.3,0,2.9-0.6,4.1-1.5l1.4,1.5c-1.6,1.4-3.4,2-5.4,2
			c-3.6,0-7.7-1.6-7.7-8.9c0-7,4-9,7.3-9c4.2,0,7,3.2,7,7.8v1.7H483.2z M488.2,207.1c-2.9,0-4.8,2-5,5.7h9.8
			C492.9,208.9,491.1,207.1,488.2,207.1z"/>
		<path class="st4" d="M504.8,222.7c-2.5,0-3.9-1.5-3.9-4.1v-11.5h-2.2v-1.9h2.2v-4.5h2.3v4.5h3v1.9h-3v11.1c0,1.3,0.3,2.5,2.2,2.5
			h1.3v2H504.8z"/>
		<path class="st4" d="M523.8,200.3v9h10.9v2.1h-10.9v11.3h-2.4v-24.6h15.3v2.2H523.8z"/>
		<path class="st4" d="M552.7,207.9c0.8,1.2,1.3,3.3,1.3,6.2c0,2.8-0.6,4.7-1.5,6c-1.3,1.9-3.4,2.9-5.8,2.9c-2.4,0-4.2-0.8-5.4-2.3
			c-1.1-1.5-1.6-3.6-1.6-6.6c0-2.6,0.5-4.4,1.4-5.8c1.2-1.9,3.3-3.2,6-3.2C549.6,205,551.6,206.1,552.7,207.9z M542.9,209.2
			c-0.7,1.1-1.1,2.5-1.1,4.8c0,2.2,0.4,3.7,1,4.8c0.8,1.3,2.1,2.1,3.9,2.1c1.8,0,3.4-0.8,4.2-2.5c0.5-1,0.8-2.2,0.8-4.4
			c0-2.2-0.3-3.5-0.7-4.5c-0.8-1.6-2.3-2.5-4.1-2.5C545.2,207,543.8,207.9,542.9,209.2z"/>
		<path class="st4" d="M568.8,207.8c-0.7-0.4-1.6-0.6-2.4-0.6c-2.7,0-4.6,1.8-4.6,4.9v10.7h-2.2v-17.6h2.2v2.6h0.1
			c1.2-2.2,3.1-2.8,5.1-2.8c1.1,0,2,0.2,2.7,0.6L568.8,207.8z"/>
		<path class="st4" d="M574.6,214.6c-0.1,3.5,1.5,6.4,5.4,6.4c1.3,0,2.9-0.6,4.1-1.5l1.4,1.5c-1.6,1.4-3.4,2-5.4,2
			c-3.6,0-7.7-1.6-7.7-8.9c0-7,4-9,7.3-9c4.2,0,7,3.2,7,7.8v1.7H574.6z M579.5,207.1c-2.9,0-4.8,2-5,5.7h9.8
			C584.3,208.9,582.5,207.1,579.5,207.1z"/>
		<path class="st4" d="M603,222.7v-10.9c0-3-1.3-4.7-4.5-4.7c-2.7,0-4.7,2-4.7,5v10.5h-2.2v-17.6h2.2v2.6h0.1
			c1.2-1.9,3.3-2.8,5.3-2.8c3.6,0,6.1,2.1,6.1,6.1v11.7H603z"/>
		<path class="st4" d="M616.9,222.9c-2.5,0-5.1-0.7-7.2-2.3l1.4-1.7c1.7,1.4,3.6,2.1,5.9,2.1c2.1,0,4.4-0.9,4.4-3.2
			c0-2.1-2.1-2.7-4.5-3c-2.9-0.4-6.2-0.9-6.2-4.6c0-3.2,2.8-5.2,6.4-5.2c2.6,0,4.4,0.6,6,1.8l-1.2,1.8c-1.4-0.9-2.9-1.5-4.7-1.5
			c-2.5,0-4.2,1.1-4.2,3c0,1.9,2,2.4,5,2.8c2.7,0.3,5.8,1.3,5.8,4.9C623.7,220.8,621.1,222.9,616.9,222.9z"/>
		<path class="st4" d="M628.6,200.4v-2.3h2.4v2.3H628.6z M628.7,222.7v-17.6h2.3v17.6H628.7z"/>
		<path class="st4" d="M644,222.9c-4,0-7.9-2.4-7.9-9c0-6.5,3.9-9,7.9-9c2.2,0,4,0.9,5.4,2.2l-1.5,1.6c-1-1-2.4-1.7-3.8-1.7
			c-3.7,0-5.8,2.3-5.8,6.9c0,4.5,2.1,6.9,5.8,6.9c1.5,0,2.9-0.9,3.8-1.7l1.5,1.6C648.1,222.1,646.2,222.9,644,222.9z"/>
		<path class="st4" d="M660.4,222.9c-2.5,0-5.1-0.7-7.2-2.3l1.4-1.7c1.7,1.4,3.6,2.1,5.9,2.1c2.1,0,4.4-0.9,4.4-3.2
			c0-2.1-2.1-2.7-4.5-3c-2.9-0.4-6.2-0.9-6.2-4.6c0-3.2,2.8-5.2,6.4-5.2c2.6,0,4.4,0.6,6,1.8l-1.2,1.8c-1.4-0.9-2.9-1.5-4.7-1.5
			c-2.5,0-4.2,1.1-4.2,3c0,1.9,2,2.4,5,2.8c2.7,0.3,5.8,1.3,5.8,4.9C667.2,220.8,664.6,222.9,660.4,222.9z"/>
		<path class="st4" d="M698.1,217.8c-1.2,3.2-4.1,5.1-7.9,5.1c-6.1,0-8.6-4.2-8.6-9v-7c0-4.8,2.7-9,8.6-9c3.8,0,6.6,1.9,7.9,4.9
			l-2.2,1c-0.9-2.2-2.9-3.7-5.6-3.7c-4.5,0-6.3,3.3-6.3,6.8v6.8c0,3.6,1.8,6.9,6.3,6.9c2.8,0,4.7-1.6,5.7-3.9L698.1,217.8z"/>
		<path class="st4" d="M715.2,207.9c0.8,1.2,1.3,3.3,1.3,6.2c0,2.8-0.6,4.7-1.5,6c-1.3,1.9-3.4,2.9-5.8,2.9c-2.4,0-4.2-0.8-5.4-2.3
			c-1.1-1.5-1.6-3.6-1.6-6.6c0-2.6,0.5-4.4,1.4-5.8c1.2-1.9,3.3-3.2,6-3.2C712,205,714.1,206.1,715.2,207.9z M705.4,209.2
			c-0.7,1.1-1.1,2.5-1.1,4.8c0,2.2,0.4,3.7,1,4.8c0.8,1.3,2.1,2.1,3.9,2.1c1.8,0,3.4-0.8,4.2-2.5c0.5-1,0.8-2.2,0.8-4.4
			c0-2.2-0.3-3.5-0.7-4.5c-0.8-1.6-2.3-2.5-4.1-2.5C707.7,207,706.2,207.9,705.4,209.2z"/>
		<path class="st4" d="M744.7,211.9c0-2.8-1.3-4.7-4.4-4.7c-2.7,0-4.8,1.9-4.8,5v10.6h-2.2v-10.9c0-2.8-1.5-4.7-4.5-4.7
			c-2.7,0-4.6,1.9-4.6,5v10.6h-2.2v-17.6h2.2v2.5h0.1c1.1-1.9,3.3-2.7,5.2-2.7c2.6,0,4.4,1.1,5.5,3v0c0,0,0,0,0,0c1.4-2.1,3.5-3,6-3
			c3.4,0,6,2.2,6,6v11.7h-2.2V211.9z"/>
		<path class="st4" d="M755.1,205.2v2.4l0.1,0c1.4-2.1,3.4-2.7,5.2-2.7c5.1,0,6.3,4.3,6.3,8.9c0,4.5-1.4,9.1-6.8,9.1
			c-2.2,0-3.7-1-4.7-2.4h-0.1v9.2h-2.2v-24.6H755.1z M759.7,220.8c4,0,4.7-3.7,4.7-6.8c0-3-0.4-6.9-4.5-6.9c-4,0-4.7,4-4.7,6.8
			C755.1,217.2,755.9,220.8,759.7,220.8z"/>
		<path class="st4" d="M782.8,221c-0.9,1.4-3,1.9-5.4,1.9c-3.7,0-6.2-1.9-6.2-5.1c0-2.8,1.9-5,5.6-5h6v-2.3c0-2.2-1.3-3.5-4.6-3.5
			c-1.9,0-3.4,0.5-4.5,1.6l-1.4-1.5c1.4-1.5,3.5-2.2,5.9-2.2c3.7,0,6.8,1.1,6.8,5.6v12.2h-2.2L782.8,221L782.8,221z M777.3,214.7
			c-2.5,0-4,1.1-4,3.1c0,2,1.6,3.2,4.4,3.2c2.3,0,5.1-0.7,5.1-3.5v-2.8H777.3z"/>
		<path class="st4" d="M802.2,222.7v-10.9c0-3-1.3-4.7-4.5-4.7c-2.7,0-4.7,2-4.7,5v10.5h-2.2v-17.6h2.2v2.6h0.1
			c1.2-1.9,3.3-2.8,5.3-2.8c3.6,0,6.1,2.1,6.1,6.1v11.7H802.2z"/>
		<path class="st4" d="M810.9,229.8h-1.2v-2h1.1c1.1,0,2-0.5,2.5-2.2l1-2.9l-6.5-17.5h2.5l2.9,8.1l2.2,6.5h0.1
			c0.5-1.4,1.3-4,2.3-6.7l2.7-7.9h2.3l-7.6,21.3C814.4,229.1,812.7,229.8,810.9,229.8z"/>
	</g>
</g>
</svg>
